<svg x="0" y="0" width="700" height="350" viewBox="0 0 700 350" xmlns="http://www.w3.org/2000/svg" xmlns:xlink="http://www.w3.org/1999/xlink" xmlns:fi="http://pattern.flaticon.com/"><rect x="0px" y="0px" width="100%" height="100%" opacity="1" fill="#1c86ff"/><defs><path d="M165,0C74.019,0,0,74.019,0,165s74.019,165,165,165c90.982,0,165-74.019,165-165S255.982,0,165,0z" transform="matrix(0.03030303120613098 0 0 0.03030303120613098 345 82.5)" id="L1_38" fill="#34b9f5"/><path d="M165,0C74.019,0,0,74.019,0,165s74.019,165,165,165c90.982,0,165-74.019,165-165S255.982,0,165,0z" transform="matrix(0.03030303120613098 0 0 0.03030303120613098 82.5 257.5)" id="L1_39" fill="#465f56"/><g transform="matrix(0.0390625 0 0 0.0390625 340 165)" id="L1_40"><path d="m512 256c0 141.386719-114.613281 256-256 256s-256-114.613281-256-256 114.613281-256 256-256 256 114.613281 256 256zm0 0" fill="#34b9f5"/><path d="m512 256c0-10.3125-.628906-20.476562-1.8125-30.46875l-141.726562-141.726562-266.976563 308.425781 117.03125 117.03125c12.234375 1.792969 24.75 2.738281 37.484375 2.738281 141.386719 0 256-114.613281 256-256zm0 0" fill="#34b9f5"/><path d="m410.515625 392.230469-.949219.949219c-12.203125 12.203124-31.988281 12.203124-44.1875 0l-50.195312-50.191407c-12.203125-12.203125-12.203125-31.984375 0-44.1875l.949218-.949219c12.203126-12.203124 31.988282-12.203124 44.1875 0l50.195313 50.191407c12.203125 12.203125 12.203125 31.984375 0 44.1875zm0 0" fill="#555a66"/><path d="m410.515625 392.230469c12.203125-12.203125 12.203125-31.984375 0-44.1875l-50.195313-50.191407c-12.199218-12.203124-31.984374-12.203124-44.1875 0l-.949218.949219c-.140625.140625-.273438.285157-.410156.429688l94.363281 94.359375c.140625-.136719.289062-.269532.425781-.410156zm0 0" fill="#414952"/><path d="m340.050781 280.316406-42.402343 42.402344-165.507813-165.507812 11.398437-73.40625zm0 0" fill="#dce1eb"/><path d="m340.050781 280.316406-196.511719-196.511718-5.9375 38.25 180.355469 180.355468zm0 0" fill="#cdd2e1"/><path d="m385.078125 279.058594-88.6875 88.6875c-20.070313-20.070313-20.070313-52.609375 0-72.683594l16.007813-16.003906c20.070312-20.070313 52.609374-20.070313 72.679687 0zm0 0" fill="#414952"/><path d="m385.078125 279.058594c-20.070313-20.070313-52.609375-20.070313-72.679687 0l-8.898438 8.894531 36.34375 36.34375zm0 0" fill="#23272b"/><path d="m101.484375 392.230469.949219.949219c12.203125 12.203124 31.988281 12.203124 44.1875 0l50.195312-50.191407c12.203125-12.203125 12.203125-31.984375 0-44.1875l-.949218-.949219c-12.203126-12.203124-31.988282-12.203124-44.1875 0l-50.195313 50.191407c-12.203125 12.203125-12.203125 31.984375 0 44.1875zm0 0" fill="#555a66"/><path d="m195.867188 297.851562c-12.203126-12.203124-31.988282-12.203124-44.1875 0l-50.195313 50.191407c-12.203125 12.203125-12.203125 31.984375 0 44.1875l.371094.371093 94.378906-94.382812zm0 0" fill="#414952"/><path d="m171.949219 280.316406 42.402343 42.402344 165.507813-165.507812-11.398437-73.40625zm0 0" fill="#ffffff"/><path d="m368.460938 83.804688-196.511719 196.511718 21.09375 21.09375 181.089843-181.085937zm0 0" fill="#dce1eb"/><path d="m126.921875 279.058594 88.6875 88.6875c20.070313-20.070313 20.070313-52.609375 0-72.683594l-16.007813-16.003906c-20.070312-20.070313-52.609374-20.070313-72.679687 0zm0 0" fill="#414952"/><path d="m199.601562 279.058594c-20.070312-20.070313-52.609374-20.070313-72.679687 0l44.234375 44.238281 36.34375-36.34375zm0 0" fill="#23272b"/></g><g transform="matrix(-0.1171875 0 0 0.1171875 205 232.5)" id="L1_41"><path d="m512 256c0 141.386719-114.613281 256-256 256s-256-114.613281-256-256 114.613281-256 256-256 256 114.613281 256 256zm0 0" fill="#34b9f5"/><path d="m512 256c0-10.3125-.628906-20.476562-1.8125-30.46875l-141.726562-141.726562-266.976563 308.425781 117.03125 117.03125c12.234375 1.792969 24.75 2.738281 37.484375 2.738281 141.386719 0 256-114.613281 256-256zm0 0" fill="#34b9f5"/><path d="m410.515625 392.230469-.949219.949219c-12.203125 12.203124-31.988281 12.203124-44.1875 0l-50.195312-50.191407c-12.203125-12.203125-12.203125-31.984375 0-44.1875l.949218-.949219c12.203126-12.203124 31.988282-12.203124 44.1875 0l50.195313 50.191407c12.203125 12.203125 12.203125 31.984375 0 44.1875zm0 0" fill="#555a66"/><path d="m410.515625 392.230469c12.203125-12.203125 12.203125-31.984375 0-44.1875l-50.195313-50.191407c-12.199218-12.203124-31.984374-12.203124-44.1875 0l-.949218.949219c-.140625.140625-.273438.285157-.410156.429688l94.363281 94.359375c.140625-.136719.289062-.269532.425781-.410156zm0 0" fill="#414952"/><path d="m340.050781 280.316406-42.402343 42.402344-165.507813-165.507812 11.398437-73.40625zm0 0" fill="#dce1eb"/><path d="m340.050781 280.316406-196.511719-196.511718-5.9375 38.25 180.355469 180.355468zm0 0" fill="#cdd2e1"/><path d="m385.078125 279.058594-88.6875 88.6875c-20.070313-20.070313-20.070313-52.609375 0-72.683594l16.007813-16.003906c20.070312-20.070313 52.609374-20.070313 72.679687 0zm0 0" fill="#414952"/><path d="m385.078125 279.058594c-20.070313-20.070313-52.609375-20.070313-72.679687 0l-8.898438 8.894531 36.34375 36.34375zm0 0" fill="#23272b"/><path d="m101.484375 392.230469.949219.949219c12.203125 12.203124 31.988281 12.203124 44.1875 0l50.195312-50.191407c12.203125-12.203125 12.203125-31.984375 0-44.1875l-.949218-.949219c-12.203126-12.203124-31.988282-12.203124-44.1875 0l-50.195313 50.191407c-12.203125 12.203125-12.203125 31.984375 0 44.1875zm0 0" fill="#555a66"/><path d="m195.867188 297.851562c-12.203126-12.203124-31.988282-12.203124-44.1875 0l-50.195313 50.191407c-12.203125 12.203125-12.203125 31.984375 0 44.1875l.371094.371093 94.378906-94.382812zm0 0" fill="#414952"/><path d="m171.949219 280.316406 42.402343 42.402344 165.507813-165.507812-11.398437-73.40625zm0 0" fill="#ffffff"/><path d="m368.460938 83.804688-196.511719 196.511718 21.09375 21.09375 181.089843-181.085937zm0 0" fill="#dce1eb"/><path d="m126.921875 279.058594 88.6875 88.6875c20.070313-20.070313 20.070313-52.609375 0-72.683594l-16.007813-16.003906c-20.070312-20.070313-52.609374-20.070313-72.679687 0zm0 0" fill="#414952"/><path d="m199.601562 279.058594c-20.070312-20.070313-52.609374-20.070313-72.679687 0l44.234375 44.238281 36.34375-36.34375zm0 0" fill="#23272b"/></g><g transform="matrix(-0.1171875 0 0 0.1171875 117.5 57.5)" id="L1_42"><path d="m512 256c0 141.386719-114.613281 256-256 256s-256-114.613281-256-256 114.613281-256 256-256 256 114.613281 256 256zm0 0" fill="#34b9f5"/><path d="m507.867188 302.011719-251.867188-251.867188-8.878906 289.308594-33.550782 103.277344 68 68c114.070313-11.3125 206.113282-97.496094 226.296876-208.71875zm0 0" fill="#34b9f5"/><path d="m273 346.527344v-31.386719l66.917969-66.914063-83.917969-198.082031-83.917969 198.082031 66.917969 66.917969v31.382813c-23.992188 7.300781-41.5 29.625-41.5 55.972656 0 32.257812 26.242188 58.5 58.5 58.5s58.5-26.242188 58.5-58.5c0-26.347656-17.507812-48.671875-41.5-55.972656zm-17 80.472656c-13.511719 0-24.5-10.992188-24.5-24.5s10.988281-24.5 24.5-24.5 24.5 10.992188 24.5 24.5-10.988281 24.5-24.5 24.5zm0 0" fill="#414952"/><path d="m273 346.527344v-31.386719l66.917969-66.914063-83.917969-198.082031.210938 327.859375c13.414062.117188 24.289062 11.058594 24.289062 24.496094s-10.875 24.378906-24.289062 24.496094v34c32.160156-.117188 58.289062-26.308594 58.289062-58.496094 0-26.347656-17.507812-48.671875-41.5-55.972656zm0 0" fill="#23272b"/></g><g transform="matrix(0.078125 0 0 0.078125 242.5 67.5)" id="L1_43"><path d="m512 256c0 141.386719-114.613281 256-256 256s-256-114.613281-256-256 114.613281-256 256-256 256 114.613281 256 256zm0 0" fill="#34b9f5"/><path d="m512 256c0-12.46875-.910156-24.726562-2.632812-36.71875l-124.074219-124.078125-32.847657 88.21875-195.628906 143.304687-49.832031 102.273438 70.820313 70.820312c24.652343 7.898438 50.921874 12.179688 78.195312 12.179688 141.386719 0 256-114.613281 256-256zm0 0" fill="#34b9f5"/><path d="m207.449219 273.082031s-111.96875 60.050781-100.464844 155.917969c0 0 33.964844-94.226562 128.191406-128.191406zm0 0" fill="#ffffff"/><path d="m284.828125 251.121094s111.96875-60.046875 100.460937-155.917969c0 0-33.964843 94.226563-128.1875 128.191406zm0 0" fill="#dce1eb"/><path d="m257.117188 223.410156 27.726562 27.726563-49.667969 49.667969-27.726562-27.726563zm0 0" fill="#414952"/><path d="m284.847656 251.140625-27.730468-27.730469-39.09375 39.070313h55.457031zm0 0" fill="#23272b"/></g><g transform="matrix(-0.18814991414546967 -2.304171980451175e-17 2.304171980451175e-17 -0.18814991414546967 384.1663818359375 362.1663818359375)" id="L1_45"><path d="m512 256c0 141.386719-114.613281 256-256 256s-256-114.613281-256-256 114.613281-256 256-256 256 114.613281 256 256zm0 0" fill="#34b9f5"/><path d="m512 256c0-5.152344-.171875-10.261719-.46875-15.339844l-106.46875-106.464844-277.070312 265.5625 111.710937 111.710938c5.390625.339844 10.820313.53125 16.296875.53125 141.386719 0 256-114.613281 256-256zm0 0" fill="#34b9f5"/><path d="m448.5 256c0 106.316406-86.183594 192.5-192.5 192.5s-192.5-86.183594-192.5-192.5c0-106.3125 86.183594-192.5 192.5-192.5s192.5 86.1875 192.5 192.5zm0 0" fill="#414952"/><path d="m256 63.5c-.132812 0-.261719.003906-.394531.003906v384.992188c.132812 0 .261719.003906.394531.003906 106.316406 0 192.5-86.183594 192.5-192.5 0-106.3125-86.183594-192.5-192.5-192.5zm0 0" fill="#23272b"/><path d="m410.332031 280c0-33.6875-69.097656-61-154.332031-61s-154.332031 27.3125-154.332031 61 69.097656 61 154.332031 61 154.332031-27.3125 154.332031-61zm0 0" fill="#ffffff"/><path d="m256 219c-.132812 0-.261719.003906-.394531.003906v121.992188c.132812 0 .261719.003906.394531.003906 85.234375 0 154.332031-27.3125 154.332031-61s-69.097656-61-154.332031-61zm0 0" fill="#dce1eb"/><path d="m202.582031 283.25c0 15.050781-12.199219 27.25-27.25 27.25-15.046875 0-27.25-12.199219-27.25-27.25s12.203125-27.25 27.25-27.25c15.050781 0 27.25 12.199219 27.25 27.25zm0 0" fill="#414952"/><path d="m363.917969 283.25c0 15.050781-12.203125 27.25-27.25 27.25-15.050781 0-27.25-12.199219-27.25-27.25s12.199219-27.25 27.25-27.25c15.046875 0 27.25 12.199219 27.25 27.25zm0 0" fill="#23272b"/></g></defs><g fi:class="KUsePattern"><pattern id="pattern_L1_38" width="350" height="350" patternUnits="userSpaceOnUse"><use xlink:href="#L1_38" x="-350" y="-350"/><use xlink:href="#L1_38" x="0" y="-350"/><use xlink:href="#L1_38" x="350" y="-350"/><use xlink:href="#L1_38" x="-350" y="0"/><use xlink:href="#L1_38" x="0" y="0"/><use xlink:href="#L1_38" x="350" y="0"/><use xlink:href="#L1_38" x="-350" y="350"/><use xlink:href="#L1_38" x="0" y="350"/><use xlink:href="#L1_38" x="350" y="350"/></pattern><rect x="0" y="0" width="100%" height="100%" fill="url(#pattern_L1_38)"/></g><g fi:class="KUsePattern"><pattern id="pattern_L1_39" width="350" height="350" patternUnits="userSpaceOnUse"><use xlink:href="#L1_39" x="-350" y="-350"/><use xlink:href="#L1_39" x="0" y="-350"/><use xlink:href="#L1_39" x="350" y="-350"/><use xlink:href="#L1_39" x="-350" y="0"/><use xlink:href="#L1_39" x="0" y="0"/><use xlink:href="#L1_39" x="350" y="0"/><use xlink:href="#L1_39" x="-350" y="350"/><use xlink:href="#L1_39" x="0" y="350"/><use xlink:href="#L1_39" x="350" y="350"/></pattern><rect x="0" y="0" width="100%" height="100%" fill="url(#pattern_L1_39)"/></g><g fi:class="KUsePattern"><pattern id="pattern_L1_40" width="350" height="350" patternUnits="userSpaceOnUse"><use xlink:href="#L1_40" x="-350" y="-350"/><use xlink:href="#L1_40" x="0" y="-350"/><use xlink:href="#L1_40" x="350" y="-350"/><use xlink:href="#L1_40" x="-350" y="0"/><use xlink:href="#L1_40" x="0" y="0"/><use xlink:href="#L1_40" x="350" y="0"/><use xlink:href="#L1_40" x="-350" y="350"/><use xlink:href="#L1_40" x="0" y="350"/><use xlink:href="#L1_40" x="350" y="350"/></pattern><rect x="0" y="0" width="100%" height="100%" fill="url(#pattern_L1_40)"/></g><g fi:class="KUsePattern"><pattern id="pattern_L1_41" width="350" height="350" patternUnits="userSpaceOnUse"><use xlink:href="#L1_41" x="-350" y="-350"/><use xlink:href="#L1_41" x="0" y="-350"/><use xlink:href="#L1_41" x="350" y="-350"/><use xlink:href="#L1_41" x="-350" y="0"/><use xlink:href="#L1_41" x="0" y="0"/><use xlink:href="#L1_41" x="350" y="0"/><use xlink:href="#L1_41" x="-350" y="350"/><use xlink:href="#L1_41" x="0" y="350"/><use xlink:href="#L1_41" x="350" y="350"/></pattern><rect x="0" y="0" width="100%" height="100%" fill="url(#pattern_L1_41)"/></g><g fi:class="KUsePattern"><pattern id="pattern_L1_42" width="350" height="350" patternUnits="userSpaceOnUse"><use xlink:href="#L1_42" x="-350" y="-350"/><use xlink:href="#L1_42" x="0" y="-350"/><use xlink:href="#L1_42" x="350" y="-350"/><use xlink:href="#L1_42" x="-350" y="0"/><use xlink:href="#L1_42" x="0" y="0"/><use xlink:href="#L1_42" x="350" y="0"/><use xlink:href="#L1_42" x="-350" y="350"/><use xlink:href="#L1_42" x="0" y="350"/><use xlink:href="#L1_42" x="350" y="350"/></pattern><rect x="0" y="0" width="100%" height="100%" fill="url(#pattern_L1_42)"/></g><g fi:class="KUsePattern"><pattern id="pattern_L1_43" width="350" height="350" patternUnits="userSpaceOnUse"><use xlink:href="#L1_43" x="-350" y="-350"/><use xlink:href="#L1_43" x="0" y="-350"/><use xlink:href="#L1_43" x="350" y="-350"/><use xlink:href="#L1_43" x="-350" y="0"/><use xlink:href="#L1_43" x="0" y="0"/><use xlink:href="#L1_43" x="350" y="0"/><use xlink:href="#L1_43" x="-350" y="350"/><use xlink:href="#L1_43" x="0" y="350"/><use xlink:href="#L1_43" x="350" y="350"/></pattern><rect x="0" y="0" width="100%" height="100%" fill="url(#pattern_L1_43)"/></g><g fi:class="KUsePattern"><pattern id="pattern_L1_45" width="350" height="350" patternUnits="userSpaceOnUse"><use xlink:href="#L1_45" x="-350" y="-350"/><use xlink:href="#L1_45" x="0" y="-350"/><use xlink:href="#L1_45" x="350" y="-350"/><use xlink:href="#L1_45" x="-350" y="0"/><use xlink:href="#L1_45" x="0" y="0"/><use xlink:href="#L1_45" x="350" y="0"/><use xlink:href="#L1_45" x="-350" y="350"/><use xlink:href="#L1_45" x="0" y="350"/><use xlink:href="#L1_45" x="350" y="350"/></pattern><rect x="0" y="0" width="100%" height="100%" fill="url(#pattern_L1_45)"/></g></svg>